<svg width="16" height="16" viewBox="0 0 16 16" fill="none" xmlns="http://www.w3.org/2000/svg">
  <path fill="#000" d="M8 0C3.58 0 0 3.58 0 8.03c0 3.54 2.29 6.54 5.47 7.6.4.07.55-.17.55-.38v-1.57c-2.22.48-2.69-1.08-2.69-1.08-.36-.9-.88-1.14-.88-1.14-.72-.49.06-.48.06-.48.8.06 1.22.82 1.22.82.72 1.25 1.89.89 2.35.68.07-.52.28-.89.51-1.1-1.78-.2-3.66-.89-3.66-3.97 0-.88.32-1.61.85-2.18-.09-.2-.37-1.03.08-2.14 0 0 .68-.22 2.23.84.65-.18 1.35-.27 2.04-.27s1.39.09 2.04.27c1.54-1.05 2.23-.84 2.23-.84.45 1.11.17 1.94.08 2.14.53.57.85 1.3.85 2.18 0 3.08-1.88 3.77-3.66 3.97.29.25.51.73.51 1.45v2.15c0 .21.15.46.55.38C13.71 15.08 16 12.08 16 8.03 16 3.58 12.42 0 8 0z"/>
</svg>

